<?xml version="1.0"?>
<svg xmlns="http://www.w3.org/2000/svg" height="512px" viewBox="-17 0 512 512" width="512px" class=""><g><path d="m394.140625 141.148438-64.140625 64.140624v-135.289062h-320v382c0 18.5 32.171875 34.660156 80 43.300781 37.804688 6.84375 81.238281 8.242188 120 5.121094 69.019531-5.550781 120-25.132813 120-48.421875v-105.289062l134.851562-134.851563zm0 0" fill="#c66752" data-original="#C66752" class="active-path" data-old_color="#c66752" style="fill:#805325"/><path d="m443.640625 162.359375c19.53125 19.53125 29.019531 41.691406 21.210937 49.5-7.8125 7.8125-29.972656-1.6875-49.492187-21.21875-19.53125-19.519531-29.03125-41.679687-21.21875-49.492187 7.808594-7.808594 29.96875 1.679687 49.5 21.210937zm0 0" fill="#fec9a6" data-original="#FEC9A6" class="" data-old_color="#fec9a6" style="fill:#CE9C68"/><path d="m170 10c-88.371094 0-160 26.859375-160 60s71.628906 60 160 60 160-26.859375 160-60-71.628906-60-160-60zm0 0" fill="#fec9a6" data-original="#FEC9A6" class="" data-old_color="#fec9a6" style="fill:#CE9C68"/><path d="m150 206c-5.519531 0-10 4.480469-10 10s4.480469 10 10 10 10-4.480469 10-10-4.480469-10-10-10zm0 0" data-original="#000000" class="" style="fill:#000000"/><path d="m473.691406 187.566406c-4.496094-10.492187-12.65625-21.953125-22.980468-32.277344-10.324219-10.324218-21.785157-18.484374-32.277344-22.980468-18.03125-7.722656-27.390625-2.207032-31.363282 1.769531l-47.070312 47.070313v-111.148438c0-20.496094-18.945312-38.890625-53.347656-51.789062-31.316406-11.742188-72.742188-18.210938-116.652344-18.210938s-85.335938 6.46875-116.648438 18.210938c-34.40625 12.898437-53.351562 31.292968-53.351562 51.789062v382c0 13.050781 9.210938 24.554688 27.378906 34.183594 37.582032 19.921875 99.925782 25.816406 142.621094 25.816406 40.394531 0 92.183594-4.972656 129.578125-19.847656 33.410156-13.285156 40.421875-29.167969 40.421875-40.152344v-101.148438l131.921875-131.917968c3.976563-3.976563 9.492187-13.339844 1.769531-31.367188zm-37.125-18.132812c16.601563 16.597656 21.53125 31.042968 21.035156 35.179687-4.148437.480469-18.582031-4.445312-35.171874-21.046875-16.601563-16.589844-21.53125-31.03125-21.042969-35.167968 4.132812-.507813 18.582031 4.433593 35.179687 21.035156zm-266.566406-149.433594c85.851562 0 150 26.398438 150 50s-64.148438 50-150 50-150-26.398438-150-50 64.148438-50 150-50zm152.929688 319.640625c-1.875 1.875-2.929688 4.417969-2.929688 7.070313v105.289062c0 5.195312-6.800781 11.773438-20 18.089844v-8.089844c0-5.523438-4.476562-10-10-10s-10 4.476562-10 10v15.792969c-15.609375 4.890625-35.691406 9.09375-60 11.648437v-54.132812c0-5.519532-4.476562-10-10-10s-10 4.480468-10 10v55.789062c-9.847656.597656-19.898438.902344-30 .902344-24.394531 0-48.402344-1.777344-70-5.160156v-24.839844c0-5.523438-4.476562-10-10-10s-10 4.476562-10 10v21.105469c-43.746094-9.585938-60-23.515625-60-31.105469v-347.894531c8.558594 6.613281 19.738281 12.582031 33.351562 17.683593 8.226563 3.089844 17.160157 5.804688 26.648438 8.140626v66.070312c0 5.523438 4.476562 10 10 10s10-4.476562 10-10v-61.859375c21.667969 3.835937 45.445312 5.859375 70 5.859375 32.371094 0 63.386719-3.519531 90-10.070312v44.492187c0 5.519531 4.476562 10 10 10s10-4.480469 10-10v-50.269531c2.261719-.761719 4.484375-1.546875 6.648438-2.363282 13.613281-5.101562 24.792968-11.070312 33.351562-17.683593v101.183593c0 8.957032 10.824219 13.316407 17.070312 7.070313l47.851563-47.847656c.128906.308593.25.617187.386719.933593 4.496094 10.488282 12.660156 21.949219 22.976562 32.265626 10.320313 10.320312 21.78125 18.484374 32.269532 22.980468.320312.136719.625.253906.941406.382813zm0 0" data-original="#000000" class="" style="fill:#000000"/><path d="m60 216c0-5.523438-4.476562-10-10-10s-10 4.476562-10 10v40c0 5.523438 4.476562 10 10 10s10-4.476562 10-10zm0 0" data-original="#000000" class="" style="fill:#000000"/><path d="m70 306c-5.523438 0-10 4.476562-10 10v86c0 5.523438 4.476562 10 10 10s10-4.476562 10-10v-86c0-5.523438-4.476562-10-10-10zm0 0" data-original="#000000" class="" style="fill:#000000"/><path d="m310 246c-5.523438 0-10 4.476562-10 10v40c0 5.523438 4.476562 10 10 10s10-4.476562 10-10v-40c0-5.523438-4.476562-10-10-10zm0 0" data-original="#000000" class="" style="fill:#000000"/><path d="m150 246c-5.523438 0-10 4.476562-10 10v146c0 5.523438 4.476562 10 10 10s10-4.476562 10-10v-146c0-5.523438-4.476562-10-10-10zm0 0" data-original="#000000" class="" style="fill:#000000"/><path d="m230 186c-5.523438 0-10 4.476562-10 10v80c0 5.523438 4.476562 10 10 10s10-4.476562 10-10v-80c0-5.523438-4.476562-10-10-10zm0 0" data-original="#000000" class="" style="fill:#000000"/><path d="m230 306c-5.523438 0-10 4.476562-10 10v40c0 5.523438 4.476562 10 10 10s10-4.476562 10-10v-40c0-5.523438-4.476562-10-10-10zm0 0" data-original="#000000" class="" style="fill:#000000"/><path d="m54.597656 78.941406c20.34375 10.179688 61.347656 21.058594 115.402344 21.058594s95.058594-10.878906 115.402344-21.058594c3.386718-1.691406 5.527344-5.15625 5.527344-8.941406s-2.140626-7.25-5.527344-8.941406c-20.34375-10.179688-61.347656-21.058594-115.402344-21.058594s-95.058594 10.878906-115.402344 21.058594c-3.386718 1.691406-5.527344 5.15625-5.527344 8.941406s2.140626 7.25 5.527344 8.941406zm115.402344-18.941406c33.789062 0 61.78125 4.367188 82.097656 10-20.316406 5.632812-48.308594 10-82.097656 10s-61.78125-4.367188-82.097656-10c20.316406-5.632812 48.308594-10 82.097656-10zm0 0" data-original="#000000" class="" style="fill:#000000"/></g> </svg>
